# xmcd
#
# Track frame offsets: 
#        150
#        21538
#        40226
#        63891
#        92841
#        112438
#        133270
#        149970
#        168339
#        188448
#        208984
#        225010
#        239796
#        256650
#        277254
#        298115
#
# Disc length: 4277 seconds
#
# Revision: 0
# Processed by: cddbd v1.5.2PL0 Copyright (c) Steve Scherf et al.
# Submitted via: ExactAudioCopy v1.3
#
DISCID=0310b310
DTITLE=Fathead - Livelier Than Ever
DYEAR=2005
DGENRE=Blues
TTITLE0=Let The Good Times Roll
TTITLE1=Cockle Doodle-Do
TTITLE2=Crawfishin'
TTITLE3=Why Are People Like That!
TTITLE4=Hard Times
TTITLE5=Blue Water
TTITLE6=Am I Wrong!
TTITLE7=Number Nine Train
TTITLE8=Somebody Else's But Mine (Hole In My Pocket)
TTITLE9=Same Old Thing
TTITLE10=Steak and Potatoes
TTITLE11=Grow Too Old
TTITLE12=Monkey Time
TTITLE13=Low Life
TTITLE14=Let's Have A Party
TTITLE15=I Want You
EXTD=
EXTT0=
EXTT1=
EXTT2=
EXTT3=
EXTT4=
EXTT5=
EXTT6=
EXTT7=
EXTT8=
EXTT9=
EXTT10=
EXTT11=
EXTT12=
EXTT13=
EXTT14=
EXTT15=
PLAYORDER=
